<svg width="13" height="11" viewBox="0 0 13 11" fill="none" xmlns="http://www.w3.org/2000/svg">
<path d="M0.987498 10.1375C0.827081 9.97709 0.746873 9.77293 0.746873 9.52501C0.746873 9.2771 0.827081 9.07293 0.987498 8.91251L4.37812 5.50001L0.987498 2.08751C0.827081 1.9271 0.743373 1.72643 0.736373 1.48551C0.72879 1.24518 0.812498 1.03751 0.987498 0.862512C1.14791 0.702095 1.35208 0.621887 1.6 0.621887C1.84792 0.621887 2.05208 0.702095 2.2125 0.862512L6.2375 4.88751C6.325 4.97501 6.38712 5.0698 6.42387 5.17189C6.46004 5.27397 6.47812 5.38335 6.47812 5.50001C6.47812 5.61668 6.46004 5.72605 6.42387 5.82814C6.38712 5.93022 6.325 6.02501 6.2375 6.11251L2.2125 10.1375C2.05208 10.2979 1.85142 10.3816 1.6105 10.3886C1.37017 10.3962 1.1625 10.3125 0.987498 10.1375ZM6.7625 10.1375C6.60208 9.97709 6.52187 9.77293 6.52187 9.52501C6.52187 9.2771 6.60208 9.07293 6.7625 8.91251L10.1531 5.50001L6.7625 2.08751C6.60208 1.9271 6.51808 1.72643 6.5105 1.48551C6.5035 1.24518 6.5875 1.03751 6.7625 0.862512C6.92292 0.702095 7.12708 0.621887 7.375 0.621887C7.62292 0.621887 7.82708 0.702095 7.9875 0.862512L12.0125 4.88751C12.1 4.97501 12.1618 5.0698 12.198 5.17189C12.2347 5.27397 12.2531 5.38335 12.2531 5.50001C12.2531 5.61668 12.2347 5.72605 12.198 5.82814C12.1618 5.93022 12.1 6.02501 12.0125 6.11251L7.9875 10.1375C7.82708 10.2979 7.62671 10.3816 7.38637 10.3886C7.14546 10.3962 6.9375 10.3125 6.7625 10.1375Z" fill="white"/>
</svg>
