<svg width="18" height="19" viewBox="0 0 18 19" fill="none" xmlns="http://www.w3.org/2000/svg">
<path fill-rule="evenodd" clip-rule="evenodd" d="M15.6378 2.20163C15.455 2.01881 15.238 1.87379 14.9991 1.77485C14.7602 1.67591 14.5042 1.62498 14.2457 1.62498C13.9871 1.62498 13.7311 1.67591 13.4923 1.77485C13.2534 1.87379 13.0364 2.01881 12.8536 2.20163L3.28106 11.7741C2.66574 12.3896 2.3201 13.2242 2.32018 14.0945C2.32027 14.9648 2.66606 15.7994 3.2815 16.4147C3.89693 17.03 4.73159 17.3756 5.60187 17.3756C6.47214 17.3755 7.30674 17.0297 7.92206 16.4143L14.6534 9.68288C14.7778 9.56696 14.9424 9.50385 15.1124 9.50685C15.2824 9.50985 15.4446 9.57872 15.5649 9.69896C15.6851 9.81919 15.754 9.98141 15.757 10.1514C15.76 10.3214 15.6969 10.486 15.5809 10.6104L8.84956 17.3418C8.42505 17.7774 7.91826 18.1244 7.35858 18.3626C6.79891 18.6008 6.1975 18.7255 5.58925 18.7294C4.981 18.7334 4.37803 18.6165 3.81532 18.3855C3.25261 18.1546 2.74137 17.8141 2.31127 17.384C1.88116 16.9539 1.54076 16.4427 1.30981 15.88C1.07885 15.3173 0.961952 14.7143 0.965886 14.1061C0.96982 13.4978 1.09451 12.8964 1.33272 12.3367C1.57094 11.7771 1.91793 11.2703 2.35356 10.8458L11.9252 1.27325C12.5406 0.657932 13.3753 0.312296 14.2456 0.312378C15.1158 0.31246 15.9504 0.658254 16.5657 1.27369C17.1811 1.88912 17.5267 2.72379 17.5266 3.59406C17.5265 4.46433 17.1807 5.29893 16.5653 5.91425L6.99893 15.4806L6.99193 15.4876L6.98581 15.4938L6.98406 15.4955L6.98143 15.4973C6.60725 15.8465 6.11176 16.0363 5.60001 16.0264C5.08825 16.0165 4.60048 15.8077 4.24008 15.4442C3.87969 15.0807 3.67502 14.5912 3.66946 14.0794C3.6639 13.5676 3.8579 13.0737 4.21031 12.7025L11.0441 5.86875C11.1678 5.74915 11.3335 5.68292 11.5056 5.68434C11.6776 5.68575 11.8423 5.75469 11.964 5.87631C12.0857 5.99793 12.1548 6.16249 12.1564 6.33456C12.158 6.50662 12.0919 6.67242 11.9724 6.79625L5.13868 13.63C5.01476 13.7523 4.9445 13.9188 4.94335 14.0929C4.9422 14.267 5.01026 14.4345 5.13256 14.5584C5.25486 14.6823 5.42137 14.7526 5.59548 14.7537C5.76958 14.7549 5.93701 14.6868 6.06093 14.5645L15.6378 4.985C15.8206 4.80219 15.9656 4.58515 16.0646 4.34629C16.1635 4.10743 16.2144 3.85142 16.2144 3.59288C16.2144 3.33433 16.1635 3.07832 16.0646 2.83946C15.9656 2.6006 15.8206 2.38444 15.6378 2.20163Z" fill="white"/>
</svg>
